<?xml version="1.0" standalone="no"?>
<!DOCTYPE svg PUBLIC "-//W3C//DTD SVG 20010904//EN"
 "http://www.w3.org/TR/2001/REC-SVG-20010904/DTD/svg10.dtd">
<svg version="1.0" xmlns="http://www.w3.org/2000/svg"
 width="400.000000pt" height="400.000000pt" viewBox="0 0 400.000000 400.000000"
 preserveAspectRatio="xMidYMid meet">
<metadata>
Created by potrace 1.14, written by Peter Selinger 2001-2017
</metadata>
<g transform="translate(0.000000,400.000000) scale(0.100000,-0.100000)"
fill="#000000" stroke="none">
<path d="M1756 3670 c-39 -30 -56 -38 -77 -33 -17 3 -41 -2 -61 -12 -18 -10
-59 -21 -91 -25 -33 -5 -67 -16 -79 -26 -21 -19 -80 -104 -108 -154 -8 -15
-30 -41 -47 -58 -18 -16 -33 -39 -33 -51 0 -11 -18 -38 -40 -60 -33 -32 -40
-47 -40 -78 0 -21 -7 -47 -15 -57 -11 -14 -15 -46 -15 -109 0 -62 -6 -112 -21
-161 -16 -54 -19 -74 -10 -88 6 -10 11 -37 11 -61 0 -24 9 -59 21 -82 19 -36
20 -44 10 -86 -10 -37 -10 -61 0 -110 7 -35 11 -88 10 -117 -2 -41 3 -63 23
-96 14 -23 32 -48 40 -56 19 -15 20 -54 5 -99 -14 -40 1 -74 40 -91 33 -13
103 -116 131 -192 11 -31 39 -79 60 -106 39 -49 40 -51 34 -113 -4 -39 -13
-72 -24 -84 -10 -11 -24 -33 -31 -49 -9 -18 -25 -33 -42 -37 -16 -4 -54 -27
-84 -51 -61 -47 -86 -91 -97 -169 -7 -50 -23 -71 -95 -122 -63 -46 -62 -45
-104 -52 -20 -3 -53 -19 -71 -35 -23 -21 -44 -30 -67 -30 -33 0 -109 -41 -109
-59 0 -5 -14 -11 -32 -15 -37 -7 -123 -63 -168 -108 -34 -36 -129 -150 -145
-177 -5 -9 -18 -28 -27 -43 -10 -14 -18 -42 -18 -62 0 -20 -8 -48 -17 -63 -10
-14 -20 -49 -24 -77 -18 -125 -22 -144 -44 -187 -13 -25 -27 -64 -31 -87 l-7
-42 624 2 624 3 8 119 c6 82 5 127 -2 144 -9 19 -7 33 10 70 24 53 26 128 3
153 -21 24 -17 48 11 61 14 6 25 15 25 20 0 4 5 8 12 8 6 0 9 -3 5 -6 -3 -4 1
-13 9 -21 8 -9 14 -27 12 -42 -4 -42 13 -129 27 -141 8 -7 19 -27 26 -47 9
-28 8 -42 -6 -78 -13 -35 -14 -48 -5 -66 9 -16 9 -32 1 -64 -6 -24 -11 -60
-11 -79 l0 -36 456 0 457 0 -7 31 c-3 18 -1 38 5 45 6 8 9 30 6 51 -14 90 -16
154 -7 178 6 17 6 33 -1 49 -7 15 -9 43 -5 70 6 37 11 46 27 46 34 0 119 49
129 75 5 13 18 26 29 30 16 5 19 12 14 41 -5 28 -1 38 21 59 34 31 36 31 70
-4 l28 -29 -25 -38 c-25 -35 -25 -39 -11 -72 7 -19 14 -44 14 -57 0 -23 -28
-55 -49 -55 -21 0 -33 -50 -20 -87 10 -32 9 -38 -20 -78 -21 -29 -31 -55 -31
-79 0 -19 -5 -38 -10 -41 -13 -8 -13 -48 0 -61 8 -8 16 -37 19 -66 1 -5 167
-8 371 -8 l369 0 7 38 c8 44 20 62 44 62 12 0 19 10 23 32 2 18 3 35 1 37 -2
2 -22 -3 -43 -11 -38 -15 -42 -15 -89 7 -50 23 -82 19 -82 -10 0 -11 -60 -55
-76 -55 -2 0 -4 9 -4 20 0 15 7 20 24 20 15 0 33 11 46 27 l21 26 -32 33 -31
32 18 31 c15 26 16 35 6 51 -17 28 -16 34 18 53 34 21 38 45 13 88 -14 24 -15
33 -5 49 10 16 9 30 -7 75 -11 30 -17 68 -15 83 4 26 1 30 -27 36 -47 9 -49 8
-49 -20 0 -14 -5 -35 -12 -47 -6 -12 -11 -52 -10 -89 2 -50 -2 -78 -17 -105
-13 -28 -16 -44 -10 -62 6 -14 6 -28 0 -35 -5 -6 -12 -28 -16 -48 -4 -20 -16
-45 -27 -55 -19 -17 -20 -17 -35 2 -9 13 -13 33 -10 59 4 26 0 47 -10 62 -8
13 -13 30 -10 37 7 17 -12 119 -25 134 -5 6 -7 31 -3 55 4 25 2 55 -5 73 -7
17 -13 72 -15 124 l-3 93 -41 42 c-23 23 -41 51 -41 63 0 16 -10 25 -35 33
-42 14 -59 6 -43 -20 8 -13 9 -23 2 -32 -6 -7 -10 -37 -10 -65 1 -49 -1 -53
-21 -53 -13 0 -23 5 -23 10 0 22 -47 10 -58 -15 -6 -14 -16 -25 -21 -25 -5 0
-11 -19 -15 -42 -16 -128 -13 -124 -80 -132 -22 -2 -43 -10 -47 -18 -4 -7 -17
-24 -28 -37 -12 -13 -21 -30 -21 -37 0 -23 -23 -64 -35 -64 -7 0 -20 8 -29 19
-18 19 -16 53 6 97 8 17 6 28 -7 48 -17 25 -19 26 -41 11 -76 -49 -96 -57
-126 -44 -26 10 -28 15 -22 43 10 49 20 60 61 75 65 24 93 50 93 88 0 27 5 35
27 44 15 5 37 8 49 5 14 -4 24 -1 28 9 3 8 11 15 18 15 12 0 38 76 53 157 5
25 2 34 -14 43 -20 10 -20 13 -6 40 21 40 20 143 -1 161 -8 7 -24 29 -35 50
-10 21 -32 47 -48 59 l-30 21 -15 -23 c-8 -13 -20 -45 -27 -73 -6 -27 -15 -58
-20 -67 -12 -24 -11 -95 1 -103 23 -14 8 -41 -35 -64 -25 -13 -45 -27 -45 -31
0 -5 -13 -13 -30 -19 -17 -5 -30 -16 -30 -24 0 -9 -23 -22 -57 -33 -46 -15
-59 -24 -61 -42 -3 -19 -8 -22 -25 -16 -12 4 -37 8 -55 9 -18 1 -41 10 -51 19
-9 9 -23 16 -29 16 -12 0 -62 93 -62 115 0 7 -9 20 -20 30 -11 10 -20 28 -20
39 0 12 -9 27 -20 34 -11 7 -20 22 -20 33 0 12 -9 33 -19 47 -10 15 -19 30
-20 35 -2 11 30 71 42 79 7 4 7 19 -3 47 -7 22 -10 58 -7 82 3 23 0 65 -6 95
-10 47 -9 55 8 74 14 15 21 17 31 9 8 -6 12 -15 9 -18 -6 -10 57 -8 73 2 6 5
12 25 12 47 0 45 -9 50 -86 50 l-54 0 0 44 c0 39 3 45 26 50 21 6 25 12 21 31
-2 14 0 25 4 25 17 0 9 15 -13 25 -25 11 -36 58 -20 78 7 8 4 24 -9 51 -17 36
-17 40 -2 70 8 17 24 43 34 58 26 36 25 109 -1 133 -16 14 -19 26 -14 56 6 35
2 43 -36 86 -50 57 -60 80 -60 138 l0 44 -56 12 c-55 12 -101 49 -88 71 3 5 8
28 10 50 3 27 11 46 24 55 11 8 20 25 20 39 0 19 -6 26 -28 30 -46 9 -63 58
-50 147 13 93 21 107 61 107 20 0 53 12 81 30 34 22 54 28 72 24 19 -5 30 0
49 20 29 31 39 32 58 6 8 -11 16 -17 19 -14 3 2 26 0 52 -7 32 -8 53 -21 67
-40 16 -23 28 -29 59 -29 30 0 40 -5 45 -20 4 -11 18 -27 33 -34 15 -8 58 -40
96 -70 38 -31 73 -56 78 -56 4 0 8 -7 8 -15 0 -8 4 -15 8 -15 14 0 96 -83 120
-122 12 -19 20 -43 16 -51 -3 -9 6 -33 20 -54 27 -39 32 -89 17 -143 -4 -14
-3 -36 2 -50 5 -14 11 -65 12 -114 2 -60 8 -92 17 -97 10 -7 10 -9 0 -9 -40 0
-26 -130 21 -191 15 -20 27 -42 27 -50 0 -8 14 0 33 19 31 32 32 35 33 125 2
129 17 221 48 295 18 41 24 71 20 85 -12 37 -1 315 14 378 7 26 5 47 -5 75 -8
22 -21 68 -29 104 -18 80 -58 137 -115 168 -24 12 -51 31 -59 42 -24 30 -179
140 -226 161 -24 10 -44 22 -44 27 0 4 -28 27 -62 50 -73 48 -131 61 -189 42
-35 -12 -44 -11 -77 5 -37 18 -47 20 -132 29 -41 5 -50 2 -94 -34z m-223
-1473 c53 -23 58 -35 41 -103 -9 -32 -24 -73 -35 -90 -10 -17 -19 -38 -19 -47
0 -9 -6 -20 -13 -24 -8 -4 -19 -17 -25 -28 -15 -26 -15 -3 -1 29 10 22 9 28
-10 43 -14 12 -24 34 -28 61 -3 23 -10 42 -14 42 -15 0 -10 20 16 77 27 56 37
61 88 40z m-66 -1383 c-3 -3 -12 -4 -19 -1 -8 3 -5 6 6 6 11 1 17 -2 13 -5z
m383 -59 c0 -11 12 -15 49 -15 48 0 49 0 59 -40 12 -48 1 -65 -49 -74 -30 -5
-39 -2 -60 20 -13 14 -35 30 -48 35 -18 8 -21 13 -13 21 7 7 12 22 12 33 0 12
3 25 7 28 12 13 43 7 43 -8z m-290 -40 l33 -34 -36 11 c-29 9 -37 17 -37 35 0
13 1 23 3 23 2 0 18 -16 37 -35z m746 -459 c28 -28 34 -41 34 -77 0 -24 -4
-48 -8 -54 -15 -20 -72 -55 -90 -55 -28 0 -75 66 -82 117 -6 35 -3 46 14 61
56 51 87 53 132 8z m-1493 -75 c33 -17 33 -19 4 -74 l-24 -44 -44 16 c-38 14
-44 20 -44 46 0 22 8 35 34 52 19 13 37 22 40 20 3 -1 18 -9 34 -16z"/>
<path d="M2058 2574 c-28 -8 -24 -75 5 -102 20 -19 35 -22 109 -22 94 0 94 0
96 61 2 35 -22 54 -72 56 -23 1 -59 4 -81 7 -22 2 -48 2 -57 0z"/>
<path d="M2648 343 c7 -3 16 -2 19 1 4 3 -2 6 -13 5 -11 0 -14 -3 -6 -6z"/>
<path d="M3566 223 c-12 -12 -6 -33 9 -33 8 0 15 6 15 14 0 17 -14 28 -24 19z"/>
</g>
</svg>
