<?xml version="1.0" standalone="no"?>
<!DOCTYPE svg PUBLIC "-//W3C//DTD SVG 20010904//EN"
 "http://www.w3.org/TR/2001/REC-SVG-20010904/DTD/svg10.dtd">
<svg version="1.0" xmlns="http://www.w3.org/2000/svg"
 width="400.000000pt" height="400.000000pt" viewBox="0 0 400.000000 400.000000"
 preserveAspectRatio="xMidYMid meet">
<metadata>
Created by potrace 1.14, written by Peter Selinger 2001-2017
</metadata>
<g transform="translate(0.000000,400.000000) scale(0.100000,-0.100000)"
fill="#000000" stroke="none">
<path d="M1756 3670 c-39 -30 -56 -38 -77 -33 -17 3 -41 -2 -61 -12 -18 -10
-59 -21 -91 -25 -33 -5 -67 -16 -79 -26 -21 -19 -80 -104 -108 -154 -8 -15
-30 -41 -47 -58 -18 -16 -33 -39 -33 -51 0 -11 -18 -38 -40 -60 -33 -32 -40
-47 -40 -78 0 -21 -7 -47 -15 -57 -11 -14 -15 -46 -15 -109 0 -62 -6 -112 -21
-161 -16 -54 -19 -74 -10 -88 6 -10 11 -37 11 -61 0 -24 9 -59 21 -82 19 -36
20 -44 10 -86 -10 -37 -10 -61 0 -110 7 -35 11 -88 10 -117 -2 -41 3 -63 23
-96 14 -23 32 -48 40 -56 19 -15 20 -54 5 -99 -14 -40 1 -74 40 -91 33 -13
103 -116 131 -192 11 -31 39 -79 60 -106 39 -49 40 -51 34 -113 -4 -39 -13
-72 -24 -84 -10 -11 -24 -33 -31 -49 -9 -18 -25 -33 -42 -37 -16 -4 -54 -27
-84 -51 -61 -47 -86 -91 -97 -169 -7 -50 -23 -71 -95 -122 -63 -46 -62 -45
-104 -52 -20 -3 -53 -19 -71 -35 -23 -21 -44 -30 -67 -30 -33 0 -109 -41 -109
-59 0 -5 -14 -11 -32 -15 -37 -7 -123 -63 -168 -108 -34 -36 -129 -150 -145
-177 -5 -9 -18 -28 -27 -43 -10 -14 -18 -42 -18 -62 0 -20 -8 -48 -17 -63 -10
-14 -20 -49 -24 -77 -18 -125 -22 -144 -44 -187 -13 -25 -27 -64 -31 -87 l-7
-42 1730 0 1730 0 -2 62 c-1 40 -7 72 -18 89 -12 18 -17 49 -18 105 -1 64 -6
85 -23 109 -12 17 -28 57 -35 90 -19 86 -30 112 -56 129 -13 9 -36 38 -51 66
-15 27 -31 50 -35 50 -4 0 -20 22 -35 49 -16 31 -39 56 -58 65 -17 8 -46 26
-65 40 -19 14 -39 26 -44 26 -5 0 -27 16 -48 35 -22 19 -49 35 -61 35 -12 0
-32 10 -44 21 -21 20 -59 32 -139 45 -65 11 -171 49 -197 70 -15 12 -41 25
-57 29 -16 3 -37 15 -47 26 -9 10 -22 19 -29 19 -6 0 -21 10 -33 23 -17 18
-22 36 -22 74 0 34 -5 55 -16 64 -8 7 -24 29 -35 50 -10 21 -32 47 -49 59 -18
13 -30 30 -30 44 0 35 -21 88 -47 119 -23 29 -32 90 -14 102 5 3 12 19 16 35
4 17 10 30 15 30 12 0 60 100 60 125 0 21 38 57 103 98 22 15 27 25 27 59 0
34 6 49 33 76 31 32 32 36 33 125 2 129 17 221 48 295 18 41 24 71 20 85 -12
37 -1 315 14 378 7 26 5 47 -5 75 -8 22 -21 68 -29 104 -18 80 -58 137 -115
168 -24 12 -51 31 -59 42 -24 30 -179 140 -226 161 -24 10 -44 22 -44 27 0 4
-28 27 -62 50 -73 48 -131 61 -189 42 -35 -12 -44 -11 -77 5 -37 18 -47 20
-132 29 -41 5 -50 2 -94 -34z"/>
</g>
</svg>
